<svg t="1643452823200" class="icon" viewBox="0 0 1024 1024" version="1.1" xmlns="http://www.w3.org/2000/svg" p-id="4150" width="200" height="200"><path d="M972.8 0H51.2a51.2 51.2 0 0 0-51.2 51.2v665.6a51.2 51.2 0 0 0 51.2 51.2h409.6v153.6H256a51.2 51.2 0 0 0 0 102.4h512a51.2 51.2 0 0 0 0-102.4h-204.8v-153.6h409.6a51.2 51.2 0 0 0 51.2-51.2V51.2a51.2 51.2 0 0 0-51.2-51.2z m-51.2 665.6H102.4V102.4h819.2z" fill="#3E4055" p-id="4151"></path><path d="M256 307.2h307.2a51.2 51.2 0 0 0 0-102.4H256a51.2 51.2 0 0 0 0 102.4zM256 512h512a51.2 51.2 0 0 0 0-102.4H256a51.2 51.2 0 0 0 0 102.4z" fill="#3E4055" p-id="4152"></path></svg>